/* XPM */
static char * plainfile_xpm[] = {
"48 52 149 2",
"  	c None",
". 	c #000000",
"+ 	c #232323",
"@ 	c #1F1F1F",
"# 	c #DADADA",
"$ 	c #FFFFFF",
"% 	c #F4F4F4",
"& 	c #F6F6F6",
"* 	c #CFCFCF",
"= 	c #707070",
"- 	c #C1C1C1",
"; 	c #F3F3F3",
"> 	c #FEFEFE",
", 	c #FBFBFB",
"' 	c #EDEDED",
") 	c #C0C0C0",
"! 	c #F7F7F7",
"~ 	c #D7D7D7",
"{ 	c #F1F1F1",
"] 	c #B7B7B7",
"^ 	c #D2D2D2",
"/ 	c #AEAEAE",
"( 	c #070707",
"_ 	c #FDFDFD",
": 	c #B8B8B8",
"< 	c #DCDCDC",
"[ 	c #A4A4A3",
"} 	c #0E0E0E",
"| 	c #F5F5F4",
"1 	c #B5B5B5",
"2 	c #F9F9F9",
"3 	c #FCFCFC",
"4 	c #CBCBCB",
"5 	c #A5A5A5",
"6 	c #FDFDFC",
"7 	c #ACACAC",
"8 	c #ECECEC",
"9 	c #C3C3C3",
"0 	c #C2C2C2",
"a 	c #C9C9C8",
"b 	c #A8A8A8",
"c 	c #FCFCFB",
"d 	c #F4F4F3",
"e 	c #ABABAB",
"f 	c #515151",
"g 	c #474747",
"h 	c #464645",
"i 	c #464646",
"j 	c #5D5D5C",
"k 	c #A9A9A9",
"l 	c #FAFAFA",
"m 	c #F2F2F2",
"n 	c #AAAAAA",
"o 	c #A0A09F",
"p 	c #8A8A8A",
"q 	c #6C6C6C",
"r 	c #454545",
"s 	c #FAFAF9",
"t 	c #E7E7E7",
"u 	c #C6C6C5",
"v 	c #BABAB9",
"w 	c #7A7A7A",
"x 	c #F8F8F7",
"y 	c #F7F7F6",
"z 	c #F6F6F5",
"A 	c #F5F5F5",
"B 	c #B9B9B9",
"C 	c #FBFBFA",
"D 	c #F9F9F8",
"E 	c #B1B1B1",
"F 	c #F3F3F2",
"G 	c #BFBFBF",
"H 	c #F8F8F8",
"I 	c #B7B7B6",
"J 	c #BFBFBE",
"K 	c #F0F0F0",
"L 	c #F2F2F1",
"M 	c #B6B6B5",
"N 	c #F2F2F0",
"O 	c #F1F1F0",
"P 	c #BEBEBD",
"Q 	c #EFEFEF",
"R 	c #F0F0EF",
"S 	c #B4B4B4",
"T 	c #BDBDBD",
"U 	c #EFEFEE",
"V 	c #F3F3F1",
"W 	c #F1F1EF",
"X 	c #EEEEED",
"Y 	c #B4B4B3",
"Z 	c #EEEEEE",
"` 	c #EEEEEC",
" .	c #EDEDEC",
"..	c #B2B2B2",
"+.	c #BCBCBC",
"@.	c #EDEDEB",
"#.	c #ECECEB",
"$.	c #B2B2B1",
"%.	c #F0F0EE",
"&.	c #EBEBEA",
"*.	c #BBBBBB",
"=.	c #ECECEA",
"-.	c #B1B1B0",
";.	c #BABABA",
">.	c #E9E9E8",
",.	c #B0B0AF",
"'.	c #EAEAE9",
").	c #EBEBE9",
"!.	c #E9E9E7",
"~.	c #E8E8E7",
"{.	c #AFAFAE",
"].	c #E8E8E6",
"^.	c #E6E6E6",
"/.	c #E7E7E6",
"(.	c #E6E6E4",
"_.	c #E6E6E5",
":.	c #AEAEAC",
"<.	c #E5E5E4",
"[.	c #EFEFED",
"}.	c #E7E7E5",
"|.	c #ADADAC",
"1.	c #E4E4E3",
"2.	c #E5E5E3",
"3.	c #B5B5B4",
"4.	c #E3E3E2",
"5.	c #ADADAB",
"6.	c #EAEAE8",
"7.	c #ACACAB",
"8.	c #E2E2E1",
"9.	c #E4E4E2",
"0.	c #E0E0DF",
"a.	c #DFDFDE",
"b.	c #ABABAA",
"c.	c #E3E3E1",
"d.	c #DEDEDE",
"e.	c #ABABA9",
"f.	c #DEDEDD",
"g.	c #E2E2E0",
"h.	c #E1E1DF",
"i.	c #DDDDDB",
"j.	c #AAAAA8",
"k.	c #DCDCDB",
"l.	c #DCDCDA",
"m.	c #AEAEAD",
"n.	c #DBDBDA",
"o.	c #DBDBD9",
"p.	c #DADAD8",
"q.	c #9A9A9A",
"r.	c #8C8C8C",
"  . . . . . . . . . . . . . . . . . . . . . . . . . . . . . . . . . . + @                       ",
". # $ $ $ % $ $ $ $ $ $ $ $ $ $ $ $ $ $ $ $ $ $ $ $ $ $ $ $ $ $ $ $ $ & * = .                   ",
". $ $ - $ ; $ $ $ $ $ $ $ $ $ $ $ $ $ $ $ $ $ > > > > > > > > > > > > , & ' ) .                 ",
". $ $ - $ ; $ $ $ $ $ $ $ $ $ $ $ $ $ $ $ > > > > > > > > > > > > > > ! ~ $ { ] .               ",
". $ $ $ $ ; $ $ $ $ $ $ $ $ $ $ $ $ $ > > > > > > > > > > > > > > > > ! ^ $ $ ' / (             ",
". $ $ - $ ; $ $ $ $ $ $ $ $ $ $ $ > > > > > > > > > > > > > > > > _ _ & : $ _ $ < [ }           ",
". $ $ - $ ; $ $ $ $ $ $ $ $ $ > > > > > > > > > > > > > > _ _ _ _ _ _ | 1 $ 2 3 $ 4 5 .         ",
". $ $ $ $ ; $ $ $ $ $ $ $ > > > > > > > > > > > > > _ _ _ _ _ 6 3 3 3 % 7 8 9 4 : 0 a b .       ",
". $ $ - $ ; $ $ $ $ $ > > > > > > > > > > > _ _ _ _ _ _ 6 3 3 3 3 3 c d e f g h i i j k .       ",
". $ $ - $ ; $ $ $ > > > > > > > > > > _ _ _ _ _ 6 3 3 3 3 3 3 c , , l m ; ) n o p q q r .       ",
". $ $ $ $ ; $ > > > > > > > > _ _ _ _ _ _ 3 3 3 3 3 3 c , , , , l s s 2 , ! ! t u a v w .       ",
". $ $ - $ m > > > > > _ _ _ _ _ _ 6 3 3 3 3 3 3 c , , , , , s 2 2 2 2 ! x y z 2 A B $ k .       ",
". $ $ ) $ m > > _ _ _ _ _ _ 3 3 3 3 3 3 c , , , , , C C 2 2 2 2 D y y & ! A A 2 | ] $ E .       ",
". $ > $ _ { _ _ _ _ 6 3 3 3 3 3 3 c , , , , , C l l 2 2 2 D D & & & & | | | % D ; $ F 1 .       ",
". $ _ G $ { _ 3 3 3 3 3 3 c , , , , , C C l l l 2 D D D H & & & z | % % % d F H F I $ 1 .       ",
". $ _ J $ K 3 3 3 3 c , , , , C C l l l l l D D H H H ! z z z | % % d d F F m H L M $ 1 .       ",
". $ 3 $ 3 K c , , , , , C C l l l l s s D H H H H y z A A A % d d d F m m L N ! O $ K 1 .       ",
". $ c P $ Q , , C C l l l l l s s 2 H H H x x y A A A | d d d ; F L L L L N K ! R S $ 1 .       ",
". $ , T $ U C l l l l s s s 2 2 H H x x ! & A A | | d ; ; ; V L L L { O W R R & X Y $ 1 .       ",
". $ C $ l Z l l s s 2 2 2 2 x x ! ! ! & | | | % d ; F F F L L { { O W R R Z Z z ` $  .1 .       ",
". $ l T $ X 2 2 2 2 2 D x ! ! ! y z z | % % % F F F F L { O O O W R Q X X X ` A  ...$ 1 .       ",
". $ s +.$ ' 2 D D H ! ! ! y y z A % % d d F F m m L O O O O R R U X X X `  .@.| #.$.$ 1 .       ",
". $ 2 $ D  .H H ! y y y y A A % d d d F m m L L N O K K R %.U X X '  . .@.@.#.| &.$ &.1 .       ",
". $ H *.$ 8 y y y & & A | d d d ; F m L L L N O K R R R %.X '  . . .@.@.#.=.&.d &.-.$ 1 .       ",
". $ x ;.$ &.& & & | | d d ; ; F L L L { O W R R R R U `  . . . .@.#.=.=.&.&.&.; >.,.$ 1 .       ",
". $ & $ & '.z | | ; ; ; F F L L { O O W R R R Q U `  . . .8 #.#.=.=.&.&.).>.>.F !.$ !.1 .       ",
". $ z v $ >.% % F F F F L { O O O W R Q U U U ` `  .#.#.#.#.=.=.&.).).>.>.>.>.F ~.{.$ 1 .       ",
". $ A : $ ~.F F F m L O O O O O R U U U U `  .@.#.#.#.#.#.&.&.).).>.>.>.~.~.~.m ].{.$ 1 .       ",
". $ d $ F ^.m L L O O O K R R U U U Z  . .@.@.#.#.#.&.&.&.).).>.!.!.~.~.~.~.].L /.$ (.1 .       ",
". $ m I $ _.L O O K R R R U U Z X  . .@.@.#.=.&.&.&.&.).).>.!.!.!.~.].]./././.L (.:.$ 1 .       ",
". $ L I $ <.R R R R R U [.X X  . .@.#.=.=.&.&.&.&.'.'.>.!.!.!.].].].]././.}.(.O <.|.$ 1 .       ",
". $ { $ R 1.R R U U [.X X  . .#.#.=.=.&.&.).'.'.'.>.!.!.~.].].].]./.}.}.(.(.<.O 2.$ 2.1 .       ",
". $ R 3.$ 4.U U [.X X #.#.#.#.=.=.&.).).'.'.'.>.!.~.~.].].].].}.}.}.(.(.<.2.2.O 2.5.$ 1 .       ",
". $ U S $ 4.[.X ` #.#.#.#.#.=.).).).'.'.6.~.~.~.~.].].]./.}.}.}.(.(.2.2.2.2.2.O 2.7.$ 1 .       ",
". $ U $ X 8.` #.#.#.#.&.&.&.).).'.6.6.~.~.~.~.].]././.}.}.}.(.<.2.2.2.2.2.2.1.R 9.$ 9.1 .       ",
". $ X Y $ 0.#.=.&.&.&.&.).).6.6.6.~.~.].]././././.}.}.}.<.<.2.2.2.2.2.1.1.9.9.R 9.7.$ 1 .       ",
". $ @.$.$ a.&.&.&.).).'.6.6.6.~.].].]./././.}.}._._.<.<.2.2.2.1.1.1.1.9.9.9.9.R 9.b.$ 1 .       ",
". $ =.$ &.a.).'.'.'.'.6.6.].].].]././.}.}.}._._.<.2.2.2.2.1.1.9.9.9.9.9.9.9.9.R c.$ c.1 .       ",
". $ ).-.$ d.'.'.'.6.6.].].].].}.}.}.}.}._.(.2.2.2.2.2.1.9.9.9.9.9.9.9.9.9.c.c.R c.e.$ 1 .       ",
". $ '.-.$ f.6.>.>.~.].].].}.}.}.}.}.(.(.2.2.2.2.2.9.9.9.9.9.9.9.9.9.4.c.c.c.c.U g.e.$ 1 .       ",
". $ 6.$ >.f.>.~.].]././.}.}.}.}.(.(.2.2.2.2.2.9.9.9.9.9.9.9.4.4.4.c.c.c.c.g.g.U g.$ h.1 .       ",
". $ >.,.$ i././././.}.}.}._._.(.2.2.2.2.1.1.9.9.9.9.9.4.4.c.c.c.c.c.c.g.g.g.g.U h.j.$ 1 .       ",
". $ !./ $ k./.}.}.}._._._.(.2.2.2.1.1.9.9.9.9.9.4.4.c.c.c.c.c.c.c.g.g.g.g.h.h.U h.j.$ 1 .       ",
". $ /.$ }.l._._._._.(.(.2.1.1.1.9.9.9.9.9.9.9.c.c.c.c.c.c.c.c.g.g.g.g.h.h.h.h.U h.$ h.1 .       ",
". $ }.m.$ n.(.(.(.(.1.1.9.9.9.9.9.9.9.9.9.c.c.c.c.c.c.c.c.g.g.g.g.h.h.h.h.h.h.U h.j.$ 1 .       ",
". $ _.:.$ o.(.<.1.9.9.9.9.9.9.9.9.9.9.c.c.c.c.c.c.c.c.g.g.g.g.h.h.h.h.h.h.h.h.U h.j.$ 1 .       ",
". # (.$ (.p.9.9.9.9.9.9.9.9.9.9.4.c.c.c.c.c.c.c.c.g.g.g.g.h.h.h.h.h.h.h.h.h.h.R h.$ h.q..       ",
". 0 1 1 1 ..1 1 1 1 1 1 1 1 1 1 1 1 1 1 1 1 1 1 1 1 1 1 1 1 1 1 1 1 1 1 1 1 1 1 1 1 q.r..       ",
"  . . . . . . . . . . . . . . . . . . . . . . . . . . . . . . . . . . . . . . . . . . . .       ",
"                                                                                                ",
"                                                                                                ",
"                                                                                                "};
