/* XPM */
static char * card_xpm[] = {
"14 12 44 1",
" 	c None",
".	c #BDBDBD",
"+	c #BABABA",
"@	c #FEFEFE",
"#	c #B5B5B5",
"$	c #FCFCFC",
"%	c #AFAFAF",
"&	c #FAFAFA",
"*	c #E1E1E1",
"=	c #DFDFDF",
"-	c #F8F8F8",
";	c #E6E6E6",
">	c #AAAAAA",
",	c #F2F2F2",
"'	c #C6C6C6",
")	c #E7E7E7",
"!	c #A3A3A3",
"~	c #F5F5F5",
"{	c #F1F1F1",
"]	c #C4C4C4",
"^	c #E2E2E2",
"/	c #9F9F9F",
"(	c #F3F3F3",
"_	c #CDCDCD",
":	c #C5C5C5",
"<	c #999999",
"[	c #E9E9E9",
"}	c #D6D6D6",
"|	c #C2C2C2",
"1	c #C1C1C1",
"2	c #D0D0D0",
"3	c #E4E4E4",
"4	c #959595",
"5	c #C0C0C0",
"6	c #BFBFBF",
"7	c #E0E0E0",
"8	c #EFEFEF",
"9	c #8F8F8F",
"0	c #EAEAEA",
"a	c #E3E3E3",
"b	c #E8E8E8",
"c	c #ECECEC",
"d	c #8A8A8A",
"e	c #858585",
"..............",
"+@@@@@@@@@@@@+",
"#$$$$$$$$$$$$#",
"%&&&*=-&&;;;&%",
">--,'')------>",
"!~~{]])~~^^^~!",
"/(((_:,((((((/",
"<{[}|123{{{{{<",
"4[566666788884",
"90aaaaaabcccc9",
"d000000000000d",
"eeeeeeeeeeeeee"};
